<?xml version="1.0" encoding="utf-8"?>
<!-- Generator: Adobe Illustrator 16.0.0, SVG Export Plug-In . SVG Version: 6.00 Build 0)  -->
<!DOCTYPE svg PUBLIC "-//W3C//DTD SVG 1.1//EN" "http://www.w3.org/Graphics/SVG/1.1/DTD/svg11.dtd">
<svg version="1.1" id="Layer_1" xmlns="http://www.w3.org/2000/svg" xmlns:xlink="http://www.w3.org/1999/xlink" x="0px" y="0px"
	 width="32px" height="32px" viewBox="0 0 32 32" enable-background="new 0 0 32 32" xml:space="preserve">
<g>
	<path fill="#888888" d="M7.3,22.2l7.2-11.8c-0.7-0.1-1.3-0.5-1.7-1.1L5.4,21.5L7.3,22.2z"/>
	<path fill="#888888" d="M26,12.9l-8.3-4.8c-0.1,0.7-0.5,1.3-1,1.7l8.3,4.8C25.2,14,25.5,13.3,26,12.9z"/>
</g>
<path fill="none" stroke="#888888" stroke-width="2" stroke-miterlimit="10" d="M17.8,7.7c0,1.6-1.3,2.8-2.8,2.8
	c-1.6,0-2.8-1.3-2.8-2.8s1.3-2.8,2.8-2.8C16.6,4.9,17.8,6.1,17.8,7.7z"/>
<circle fill="none" stroke="#888888" stroke-width="2" stroke-miterlimit="10" cx="27.8" cy="15.1" r="2.8"/>
<circle fill="none" stroke="#888888" stroke-width="2" stroke-miterlimit="10" cx="4.3" cy="24.1" r="2.8"/>
</svg>
