<?xml version="1.0" encoding="utf-8"?>
<!-- Generator: Adobe Illustrator 16.0.0, SVG Export Plug-In . SVG Version: 6.00 Build 0)  -->
<!DOCTYPE svg PUBLIC "-//W3C//DTD SVG 1.1//EN" "http://www.w3.org/Graphics/SVG/1.1/DTD/svg11.dtd">
<svg version="1.1" id="Layer_1" xmlns="http://www.w3.org/2000/svg" xmlns:xlink="http://www.w3.org/1999/xlink" x="0px" y="0px"
	 width="32px" height="32px" viewBox="0 0 32 32" enable-background="new 0 0 32 32" xml:space="preserve">
<path fill="#FFFFFF" d="M26.3,13.5L14.6,6.3C14.4,6.9,14,7.5,13.5,8l12.1,7.4L26.3,13.5z"/>
<path fill="#FFFFFF" d="M18.3,24.5L6.6,17.3C6.4,17.9,6,18.5,5.5,19l12.1,7.4L18.3,24.5z"/>
<path fill="#FFFFFF" d="M7.3,15.2l4.2-6.8c-0.7-0.1-1.3-0.5-1.7-1.1l-4.4,7.1L7.3,15.2z"/>
<path fill="none" stroke="#FFFFFF" stroke-width="2" stroke-miterlimit="10" d="M14.8,5.7c0,1.6-1.3,2.8-2.8,2.8
	c-1.6,0-2.8-1.3-2.8-2.8s1.3-2.8,2.8-2.8C13.6,2.9,14.8,4.1,14.8,5.7z"/>
<circle fill="none" stroke="#FFFFFF" stroke-width="2" stroke-miterlimit="10" cx="4.3" cy="17.1" r="2.8"/>
<path fill="#FFFFFF" d="M23.3,25.2l4.2-6.8c-0.7-0.1-1.3-0.5-1.7-1.1l-4.4,7.1L23.3,25.2z"/>
<path fill="none" stroke="#FFFFFF" stroke-width="2" stroke-miterlimit="10" d="M30.8,15.7c0,1.6-1.3,2.8-2.8,2.8
	c-1.6,0-2.8-1.3-2.8-2.8c0-1.6,1.3-2.8,2.8-2.8C29.6,12.9,30.8,14.1,30.8,15.7z"/>
<circle fill="none" stroke="#FFFFFF" stroke-width="2" stroke-miterlimit="10" cx="20.3" cy="27.1" r="2.8"/>
</svg>
