<?xml version="1.0" encoding="UTF-8" standalone="no"?>
<svg
   xmlns:dc="http://purl.org/dc/elements/1.1/"
   xmlns:cc="http://creativecommons.org/ns#"
   xmlns:rdf="http://www.w3.org/1999/02/22-rdf-syntax-ns#"
   xmlns:svg="http://www.w3.org/2000/svg"
   xmlns="http://www.w3.org/2000/svg"
   xmlns:sodipodi="http://sodipodi.sourceforge.net/DTD/sodipodi-0.dtd"
   xmlns:inkscape="http://www.inkscape.org/namespaces/inkscape"
   viewBox="0 0 180 135"
   version="1.1"
   id="svg4"
   sodipodi:docname="image.svg"
   width="180"
   height="135"
   inkscape:version="0.92.3 (2405546, 2018-03-11)">
  <metadata
     id="metadata10">
    <rdf:RDF>
      <cc:Work
         rdf:about="">
        <dc:format>image/svg+xml</dc:format>
        <dc:type
           rdf:resource="http://purl.org/dc/dcmitype/StillImage" />
        <dc:title></dc:title>
      </cc:Work>
    </rdf:RDF>
  </metadata>
  <defs
     id="defs8" />
  <sodipodi:namedview
     pagecolor="#ffffff"
     bordercolor="#666666"
     borderopacity="1"
     objecttolerance="10"
     gridtolerance="10"
     guidetolerance="10"
     inkscape:pageopacity="0"
     inkscape:pageshadow="2"
     inkscape:window-width="1280"
     inkscape:window-height="1375"
     id="namedview6"
     showgrid="false"
     inkscape:zoom="2.6074563"
     inkscape:cx="115.94635"
     inkscape:cy="120.2355"
     inkscape:window-x="0"
     inkscape:window-y="28"
     inkscape:window-maximized="0"
     inkscape:current-layer="svg4" />
  <path
     d="M 130.625,105 H 49.375 C 44.197266,105 40,100.80274 40,95.625001 v -56.25 c 0,-5.177734 4.197266,-9.375 9.375,-9.375 h 81.25 c 5.17773,0 9.375,4.197266 9.375,9.375 v 56.25 C 140,100.80274 135.80273,105 130.625,105 Z M 61.875,40.937502 c -6.040625,0 -10.9375,4.896875 -10.9375,10.9375 0,6.040625 4.896875,10.9375 10.9375,10.9375 6.040625,0 10.9375,-4.896875 10.9375,-10.9375 0,-6.040625 -4.896874,-10.9375 -10.9375,-10.9375 z M 52.5,92.500001 h 75 v -21.875 L 110.40723,53.532229 c -0.91524,-0.915236 -2.39922,-0.915236 -3.31465,0 L 80.625,80.000001 69.782227,69.157229 c -0.915235,-0.915235 -2.399219,-0.915235 -3.314649,0 L 52.5,83.125001 Z"
     id="path2"
     inkscape:connector-curvature="0"
     style="stroke-width:0.1953125;fill-opacity:1;fill:#353535" />
</svg>
