<?xml version="1.0" encoding="utf-8"?>
<!DOCTYPE svg PUBLIC "-//W3C//DTD SVG 1.1//EN" "http://www.w3.org/Graphics/SVG/1.1/DTD/svg11.dtd">
<svg version="1.1" id="Layer_1" xmlns="http://www.w3.org/2000/svg" xmlns:xlink="http://www.w3.org/1999/xlink" x="0px" y="0px"
	 width="300px" height="275px" viewBox="450 412.5 300 275" enable-background="new 450 412.5 300 275" xml:space="preserve">
<path fill="#ddd" d="M453.25,415.75c-2.167,2.166-3.25,4.75-3.25,7.75v253c0,3,1.083,5.583,3.25,7.75c2.166,2.166,4.75,3.25,7.75,3.25h278
	c3,0,5.583-1.084,7.75-3.25c2.166-2.167,3.25-4.75,3.25-7.75v-253c0-3-1.084-5.584-3.25-7.75c-2.167-2.167-4.75-3.25-7.75-3.25H461
	C458,412.5,455.416,413.583,453.25,415.75z M725,437.5v125l-59-72L592.75,570l18.5,39l-74.5-32.75L475,621.75V437.5H725z
	 M511.75,476.25c-6.5,6.5-9.75,14.375-9.75,23.625s3.25,17.166,9.75,23.75c6.5,6.583,14.416,9.875,23.75,9.875
	c9.333,0,17.25-3.292,23.75-9.875c6.5-6.584,9.75-14.5,9.75-23.75s-3.25-17.125-9.75-23.625s-14.417-9.75-23.75-9.75
	C526.166,466.5,518.25,469.75,511.75,476.25z"/>
</svg>
