<?xml version="1.0" encoding="utf-8"?>
<!-- Generator: Adobe Illustrator 16.0.0, SVG Export Plug-In . SVG Version: 6.00 Build 0)  -->
<!DOCTYPE svg PUBLIC "-//W3C//DTD SVG 1.1//EN" "http://www.w3.org/Graphics/SVG/1.1/DTD/svg11.dtd">
<svg version="1.1" id="Layer_1" xmlns="http://www.w3.org/2000/svg" xmlns:xlink="http://www.w3.org/1999/xlink" x="0px" y="0px"
	 width="300px" height="275px" viewBox="450 412.5 300 275" enable-background="new 450 412.5 300 275" xml:space="preserve">
<path fill="#DDDDDD" d="M526.625,482.875c-1.084,1.083-1.625,2.375-1.625,3.875v126.5c0,1.5,0.541,2.792,1.625,3.875
	c1.083,1.083,2.375,1.625,3.875,1.625h139c1.5,0,2.791-0.542,3.875-1.625c1.083-1.083,1.625-2.375,1.625-3.875v-126.5
	c0-1.5-0.542-2.792-1.625-3.875c-1.084-1.083-2.375-1.625-3.875-1.625h-139C529,481.25,527.708,481.792,526.625,482.875z
	 M662.5,493.75v62.5l-29.5-36L596.375,560l9.25,19.5l-37.25-16.375l-30.875,22.75V493.75H662.5z M555.875,513.125
	c-3.25,3.25-4.875,7.188-4.875,11.813s1.625,8.583,4.875,11.875s7.208,4.938,11.875,4.938c4.666,0,8.625-1.646,11.875-4.938
	s4.875-7.25,4.875-11.875s-1.625-8.563-4.875-11.813s-7.209-4.875-11.875-4.875C563.083,508.25,559.125,509.875,555.875,513.125z"/>
</svg>
