<?xml version="1.0" encoding="utf-8"?>
<!-- Generator: Adobe Illustrator 16.0.0, SVG Export Plug-In . SVG Version: 6.00 Build 0)  -->
<!DOCTYPE svg PUBLIC "-//W3C//DTD SVG 1.1//EN" "http://www.w3.org/Graphics/SVG/1.1/DTD/svg11.dtd">
<svg version="1.1" id="Layer_1" xmlns="http://www.w3.org/2000/svg" xmlns:xlink="http://www.w3.org/1999/xlink" x="0px" y="0px"
	 width="180px" height="135px" viewBox="510 482.5 180 135" enable-background="new 510 482.5 180 135" xml:space="preserve">
<path fill="#353535" d="M551.083,505.25c-0.723,0.723-1.083,1.583-1.083,2.583v84.334c0,1,0.36,1.861,1.083,2.583
	c0.722,0.723,1.584,1.083,2.584,1.083h92.666c1,0,1.861-0.36,2.584-1.083c0.721-0.722,1.083-1.583,1.083-2.583v-84.334
	c0-1-0.362-1.86-1.083-2.583c-0.723-0.722-1.584-1.083-2.584-1.083h-92.666C552.667,504.167,551.805,504.528,551.083,505.25z
	 M641.667,512.5v41.667l-19.667-24l-24.417,26.5l6.167,13l-24.833-10.917l-20.584,15.167V512.5H641.667z M570.583,525.417
	c-2.166,2.166-3.25,4.791-3.25,7.875c0,3.083,1.084,5.723,3.25,7.916c2.167,2.195,4.805,3.293,7.917,3.293
	c3.11,0,5.75-1.098,7.917-3.293c2.166-2.193,3.25-4.833,3.25-7.916c0-3.084-1.084-5.709-3.25-7.875
	c-2.167-2.167-4.807-3.25-7.917-3.25C575.388,522.167,572.75,523.25,570.583,525.417z"/>
</svg>
